<?xml version="1.0" encoding="UTF-8" standalone="no"?><svg xmlns="http://www.w3.org/2000/svg" width="256" height="256" viewBox="0 0 90.32 89.786"><g fill="#538bf8"><path d="M45.156 5.445A37.668 37.668 0 0033.933 7.18v8.237a6.037 6.037 0 014.383 5.78 6.005 6.005 0 01-5.972 5.957 6.005 6.005 0 01-5.973-5.957c0-2.73 1.862-5.09 4.383-5.78V8.32a38.695 38.695 0 00-15.446 11.69V35.1l8.189 8.157h8.285a13.52 13.52 0 0113.39-11.882A13.52 13.52 0 0155.946 53.02l3.324 3.307a5.877 5.877 0 013.404-1.075 6.005 6.005 0 015.973 5.989 5.957 5.957 0 11-11.4-2.44l-3.5-3.485a13.455 13.455 0 01-6.857 2.986v4.223l9.169 9.12.45.482v10.436a38.262 38.262 0 0014.69-8.59V48.54h12.3v.225a40.895 40.895 0 00-.932-13.359 6.439 6.439 0 01-.337.37 6.92 6.92 0 01-4.769 1.974h-.08a6.872 6.872 0 01-4.736-1.974 6.776 6.776 0 01-1.767-3.115H58.066l-.466-.482-10.822-10.806-.45-.45V5.446a38.294 38.294 0 00-1.156 0zm4.368.273v13.873l9.89 9.89h11.432a6.792 6.792 0 011.799-3.275 6.872 6.872 0 014.736-1.99h.08l.53.031A38.439 38.439 0 0049.524 5.718zM32.328 18.403a2.778 2.778 0 00-2.778 2.793 2.778 2.778 0 002.778 2.794 2.778 2.778 0 002.793-2.794 2.778 2.778 0 00-2.793-2.777zm-20.231 6.262a39.98 39.98 0 00-5.46 20.23 40.108 40.108 0 003.164 15.703h12.058a5.957 5.957 0 1110.966 4.464l6.824 6.824.466.482v11.64a38.021 38.021 0 0013.198-.546v-9.987l-9.152-9.168-.466-.45v-5.523A13.535 13.535 0 0131.75 46.453h-9.617l-.45-.434-9.104-9.12-.465-.481v-.659zm50.56 33.798a2.762 2.762 0 00-2.761 2.794 2.73 2.73 0 002.762 2.777 2.73 2.73 0 002.777-2.777 2.778 2.778 0 00-2.777-2.794zm-35.018.931a2.73 2.73 0 00-2.81 2.762 2.778 2.778 0 002.81 2.794 2.746 2.746 0 002.746-2.794 2.73 2.73 0 00-2.746-2.762zm-16.313 4.384A38.68 38.68 0 0036.92 83.43v-9.746l-6.343-6.358a5.86 5.86 0 01-2.938.803 6.021 6.021 0 01-5.78-4.351z"/><path d="M83.499 48.749a39.675 39.675 0 01-12.3 25.208v10.308h12.3z" style="line-height:125%;-inkscape-font-specification:'League Spartan Bold'" font-weight="700" font-size="87.334" font-family="'League Spartan'" letter-spacing=".685" word-spacing="0"/></g></svg>