<svg xmlns="http://www.w3.org/2000/svg" width="18" height="18" style="fill:#f1f2f3" viewBox="0 0 5.645 5.78"><g><path d="M2.822 0A2.76 2.76 0 002 .126V.73a.442.442 0 01.321.423.44.44 0 01-.438.437.44.44 0 01-.438-.437c0-.2.137-.372.322-.423V.21a2.836 2.836 0 00-1.132.856v1.107l.599.597h.608a.99.99 0 01.981-.87.99.99 0 01.79 1.585l.243.243a.431.431 0 01.249-.079.44.44 0 01.438.438.437.437 0 11-.836-.178l-.256-.256a.986.986 0 01-.502.219v.31l.672.668.033.035v.766A2.803 2.803 0 004.73 5.02V3.157h.901v.016a2.997 2.997 0 00-.068-.978.472.472 0 01-.025.027.507.507 0 01-.349.145h-.006a.503.503 0 01-.347-.145.497.497 0 01-.129-.228h-.939l-.034-.035-.793-.792-.033-.034V0a2.806 2.806 0 00-.085 0zm.32.019v1.017l.725.724h.837a.498.498 0 01.132-.24.504.504 0 01.347-.145h.006l.039.002A2.817 2.817 0 003.142.02zm-1.26.93a.203.203 0 00-.204.205.203.203 0 00.204.204.203.203 0 00.205-.204.203.203 0 00-.205-.204zM.4 1.408A2.929 2.929 0 000 2.89a2.939 2.939 0 00.232 1.15h.883a.437.437 0 11.803.327l.5.5.034.035v.854a2.786 2.786 0 00.968-.04v-.732l-.67-.672-.035-.033v-.404a.992.992 0 01-.875-.87h-.705l-.034-.033-.667-.668L.4 2.269V2.22zm3.704 2.476a.202.202 0 00-.202.205.2.2 0 00.202.203.201.201 0 00.204-.203.203.203 0 00-.204-.205zm-2.566.068a.201.201 0 00-.205.203.203.203 0 00.205.204c.113 0 .202-.09.202-.204a.2.2 0 00-.202-.203zm-1.195.321a2.834 2.834 0 001.875 1.44v-.714l-.464-.465a.429.429 0 01-.216.059.441.441 0 01-.422-.32z"/><path d="M5.631 3.173A2.907 2.907 0 014.73 5.02v.755h.901z" style="line-height:125%;-inkscape-font-specification:'League Spartan Bold'" font-weight="700" font-size="87.334" font-family="'League Spartan'" letter-spacing=".685" word-spacing="0"/></g></svg>